[IMG]http://www.traileraddict.com/content/unknown/13hrs.jpg[/IMG]


[code]
General
Complete name                    : C:\Documents and Settings\Home\Desktop\13HRS DVDR \VTS_01_2.VOB
Format                           : MPEG-PS
Format                           : MPEG-PS
File size                        : 1 024 MiB
Duration                         : 23mn 11s
Overall bit rate                 : 6 171 Kbps

Video
ID                               : 224 (0xE0)
Format                           : MPEG Video
Format version                   : Version 2
Format profile                   : Main@Main
Format settings, BVOP            : Yes
Format settings, Matrix          : Default
Format_Settings_GOP              : M=3, N=12
Duration                         : 23mn 11s
Bit rate mode                    : Variable
Bit rate                         : 5 286 Kbps
Nominal bit rate                 : 9 800 Kbps
Width                            : 720 pixels
Height                           : 576 pixels
Display aspect ratio             : 16:9
Frame rate                       : 25.000 fps
Standard                         : PAL
Resolution                       : 8 bits
Colorimetry                      : 4:2:0
Scan type                        : Progressive
Scan order                       : Top Field First
Bits/(Pixel*Frame)               : 0.510
Stream size                      : 877 MiB (86%)

Audio #1
ID                               : 128 (0x80)
Format                           : AC-3
Format/Info                      : Audio Coding 3
Duration                         : 23mn 11s
Bit rate mode                    : Constant
Bit rate                         : 192 Kbps
Channel(s)                       : 2 channels
Channel positions                : L R
Sampling rate                    : 48.0 KHz
Video delay                      : -448ms
Stream size                      : 31.9 MiB (3%)

Audio #2
ID                               : 129 (0x81)
Format                           : AC-3
Format/Info                      : Audio Coding 3
Duration                         : 23mn 11s
Bit rate mode                    : Constant
Bit rate                         : 448 Kbps
Channel(s)                       : 6 channels
Channel positions                : Front: L C R, Surround: L R, LFE
Sampling rate                    : 48.0 KHz
Video delay                      : -512ms
Stream size                      : 74.3 MiB (7%)


Imdb Link:http://www.imdb.com/title/tt1411232/


Gemma Atkinson ... Emily
Joshua Bowman ... Doug Walker
Isabella Calthorpe ... Sarah Tyler
Cornelius Clarke ... May
Anthony Di Liseo ... Luke
Tom Felton ... Gary
Peter Gadiot ... Stephen Moore
John Lynch ... McRae
Louisa Lytton ... Holly
Simon MacCorkindale ... Duncan


Sarah Tyler returns to her troubled family home in the isolated countryside,
for a much put-off visit. As a storm rages outside, Sarah, her family and
friends shore up for the night, cut off from the outside world. But something
comes out of the driving rain and darkness. Something that holds a dark
secret so devastating that, in one night, it could wipe out the entire family.



[/code]


[IMG]http://img222.imageshack.us/img222/9467/vlcsnap2010102608h50m58.png[/IMG]
[IMG]http://img200.imageshack.us/img200/5290/vlcsnap2010102608h51m51.png[/IMG]
[IMG]http://img535.imageshack.us/img535/206/vlcsnap2010102608h54m29.png[/IMG]
[IMG]http://img835.imageshack.us/img835/238/vlcsnap2010102608h56m48.png[/IMG]

